<?xml version="1.0" encoding="UTF-8"?>
<svg id="Layer_1" data-name="Layer 1" xmlns="http://www.w3.org/2000/svg" viewBox="0 0 825.28 95.32">
  <defs>
    <style>
      .cls-1 {
        fill: #2f3161;
        stroke-width: 0px;
      }
    </style>
  </defs>
  <path class="cls-1" d="M245.69,7c.01-3.15-.87-4.26-4.11-4.16-7.11.22-14.25.41-21.34-.05-4.89-.32-5.71,1.58-5.57,5.91.3,9.81.09,19.63.09,31.21-9.58-12.09-18.01-22.7-26.39-33.35-1.51-1.92-2.71-3.8-5.73-3.72-7.52.21-15.05.19-22.57,0-3-.07-3.78,1.02-3.77,3.88.08,27.25.11,54.5-.03,81.74-.02,3.58,1.57,3.86,4.39,3.81,7.32-.13,14.65-.27,21.96.05,3.92.17,4.75-1.23,4.67-4.86-.23-10.31-.08-20.64-.08-30.96.41-.16.82-.32,1.23-.48,8.5,10.84,17.01,21.67,25.48,32.54,1.66,2.13,3.22,3.85,6.4,3.74,7.11-.25,14.24-.24,21.35,0,3.3.11,4.05-1.08,4.03-4.18-.11-27.04-.11-54.09,0-81.13Z"/>
  <path class="cls-1" d="M614.47.5c-29.74-3.54-56.57,18.88-56.61,47.15.32,2.82.41,5.69,1.01,8.45,6.83,31.51,43.53,48.52,73.14,33.95,19.01-9.36,30.31-27.78,28.08-45.79-3.05-24.58-19.84-40.69-45.62-43.76ZM609.38,66.36c-11.7.06-20.42-7.91-20.43-18.67,0-10.12,9.04-18.65,19.98-18.85,11.11-.21,20.17,8.33,20.24,19.07.07,10.65-8.23,18.39-19.79,18.45Z"/>
  <path class="cls-1" d="M715.69,0c-3.63.45-7.31.64-10.87,1.4-18.88,4.01-32.86,14.36-38.61,33.15-5.39,17.64-.7,33.5,12.69,46.18,19.32,18.31,49.57,19.29,70.22,2.41,12.03-9.84,18.77-22.64,17.16-38.39-2.71-26.51-23.44-44.39-50.59-44.76ZM715.27,66.37c-11.58-.05-20.32-8.33-20.08-19.03.23-10.12,9.47-18.53,20.33-18.5,11.21.03,19.98,8.6,19.89,19.42-.09,10.58-8.52,18.16-20.14,18.11Z"/>
  <path class="cls-1" d="M345.49,38.86c-7.93.02-15.86,0-23.8,0q-11.45,0-15.24,10.94c-1.13,3.25-3.86,7.03-3.01,9.63,1.28,3.91,6.45.21,9.79,2.3-.49.64-.85,1.37-1.43,1.79-6.6,4.79-16.63,3.52-22.74-2.82-6.36-6.6-7.17-16.34-1.94-23.42,6.45-8.73,17.31-10.89,28.34-5.15,3.04,1.58,4.47,1.31,6.33-1.39,3.8-5.51,7.67-11.02,11.98-16.14,2.77-3.29,2.16-4.93-1.33-6.71-19.97-10.21-39.82-10.84-58.96,1.59-19.26,12.5-26.06,36.53-16.79,56.83,9.55,20.91,36.01,33.22,58.19,27.36,24.21-6.4,35.21-28.6,34.54-51.85-.09-3.2-1.85-2.98-3.95-2.97Z"/>
  <path class="cls-1" d="M122,19.16c-2.08-5.27-3-12.2-6.89-15.24-4.23-3.29-11.37-.74-17.24-1-2.64-.12-5.32.23-7.93-.08-3.71-.45-5.34,1.19-6.62,4.53-7.31,19.11-14.84,38.14-22.31,57.2-3.53,9-7.07,18-10.87,27.66,9.48,0,18.22-.2,26.93.09,3.89.13,6.28-.9,6.82-4.91.48-3.59,2.58-4.38,5.96-4.24,6.71.27,13.43.25,20.14,0,3.19-.12,4.75.84,5.5,4.03.49,2.11.51,5.08,4.13,5.05,10.12-.08,20.24-.03,30.98-.03-.99-2.59-1.68-4.45-2.41-6.3-8.72-22.26-17.43-44.53-26.19-66.78ZM103.93,61.16c-.4-.04-.81-.02-1.21,0q-10.29.44-6.98-9.31c1.23-3.62,2.51-7.23,4.27-12.29,2.41,7.27,4.32,12.97,6.18,18.68.63,1.95.08,3.15-2.24,2.92Z"/>
  <path class="cls-1" d="M479.87,64.46c-5.89.17-11.82.37-17.67-.1-2.59-.21-7.59,2.72-7.5-2.8.09-5.25,4.9-2.23,7.49-2.6,5.56-.81,13.54,2.39,16.25-1.29,2.84-3.85.66-11.32.92-17.2.13-2.92-.86-3.91-3.79-3.81-5.69.19-11.38.05-17.07.06-2.03,0-4.06.34-4.07-2.89-.01-3.21,1.95-2.95,4.02-2.94,6.71.01,13.42-.16,20.12.07,3.24.12,4.2-.9,4.08-4.11-.24-6.5-.24-13.01,0-19.51.12-3.41-.86-4.54-4.4-4.51-16.67.17-33.34.2-50.01-.02-3.91-.05-4.74,1.29-4.69,4.89.19,13.21.07,26.42.07,39.64,0,13.42,0,26.83,0,40.25,0,2.46-.45,4.75,3.49,4.71,17.68-.17,35.37-.11,53.06-.03,2.51.01,3.64-.61,3.57-3.38-.16-6.91-.2-13.83.01-20.73.09-3.06-1.07-3.79-3.89-3.71Z"/>
  <path class="cls-1" d="M553.43,7.23c.15-3.55-1.09-4.42-4.5-4.39-17.07.16-34.15.21-51.22-.02-4.11-.06-5.17,1.24-5.11,5.17.21,13.21.08,26.42.08,39.63,0,13.21.16,26.43-.09,39.63-.08,4.13,1.28,5.22,5.21,5.07,7.31-.28,14.64-.27,21.95,0,3.73.14,4.37-1.44,4.24-4.66-.21-5.28.15-10.58-.13-15.85-.19-3.57,1.1-4.53,4.5-4.37,5.48.26,10.98-.05,16.46.12,2.79.09,3.98-.62,3.89-3.68-.2-6.9-.25-13.83.02-20.73.14-3.45-1.29-4.02-4.25-3.92-5.48.18-10.98-.1-16.46.11-3.04.12-4.27-.61-4.2-3.96.07-3.22.59-4.75,4.31-4.59,6.9.3,13.82-.06,20.73.15,3.23.1,4.76-.49,4.58-4.22-.31-6.49-.28-13.01,0-19.51Z"/>
  <path class="cls-1" d="M411.41,64.46c-6.3.18-12.62-.21-18.9.14-4.26.24-5.49-1.07-5.43-5.37.25-17.07-.01-34.15.19-51.22.04-3.87-.81-5.39-4.98-5.19-7.1.34-14.24.36-21.34,0-4.24-.22-5.1,1.41-5.04,5.24.19,13.21.07,26.43.07,39.64,0,13.21.04,26.43-.03,39.64-.01,2.87-.06,5.04,3.99,5,17.48-.18,34.96-.13,52.45-.03,3.08.02,3.77-1.29,3.72-4.04-.13-6.5-.23-13.02.03-19.51.15-3.75-1.54-4.37-4.73-4.28Z"/>
  <path class="cls-1" d="M825.26,25.84c-.3-5.89-.25-11.8-.02-17.69.15-3.72-.6-5.42-4.94-5.34-15.25.28-30.52.21-45.78.03-3.62-.04-5.15.78-4.91,4.71.33,5.47.47,11.02-.02,16.47-.5,5.54,1.25,7.91,6.89,6.88,4.18-.76,5.65.81,5.45,5.21-.36,8.33-.1,16.68-.1,25.02,0,8.55.2,17.1-.09,25.63-.13,4.05.7,5.85,5.24,5.59,6.9-.39,13.84-.34,20.74-.01,4.23.2,5.56-1.1,5.49-5.42-.24-16.27.18-32.56-.24-48.82-.15-5.81,1.25-8.35,7.24-7.21,4.11.79,5.24-1.12,5.04-5.04Z"/>
  <path class="cls-1" d="M55.64,25.82c-.29-6.29-.15-12.61-.05-18.91.05-2.7-.61-4.07-3.71-4.05-16.07.11-32.14.1-48.21.01-2.65-.01-3.58.93-3.52,3.55.13,5.9.46,11.83-.08,17.68-.52,5.68,1.47,7.76,6.95,6.78,4.22-.75,5.61.87,5.42,5.23-.36,8.32-.1,16.67-.1,25.01,0,8.75.24,17.5-.1,26.24-.17,4.21,1.35,5.11,5.19,4.96,6.91-.28,13.84-.32,20.74.01,4.25.2,5.55-1.12,5.49-5.42-.24-16.27.18-32.55-.24-48.81-.15-5.83,1.3-8.34,7.28-7.22,4.14.78,5.14-1.2,4.96-5.06Z"/>
</svg>